PathFileType	4	(X/Y/Z)	C:/Users/opensim2020/Desktop/walking_exp_matlab/subject01_walking07_straight_01.trc	
DataRate	CameraRate	NumFrames	NumMarkers	Units	OrigDataRate	OrigDataStartFrame	OrigNumFrames	
100.00	100.00	4	43	mm	100.00	690	282	
Frame#	Time	LFHD			RFHD			LBHD			RBHD			C7			T10			CLAV			STRN			RBAK			LSHO			LUPA			LELB			LFRM			LWRA			LWRB			LFIN			RSHO			RUPA			RELB			RFRM			RWRA			RWRB			RFIN			LASI			RASI			LPSI			RPSI			LTHI			LKNE			LTIB			LANK			LHEE			LTOE			RTHI			RKNE			RTIB			RANK			RHEE			RTOE			*39			*40			*41			*42			
		X1	Y1	Z1	X2	Y2	Z2	X3	Y3	Z3	X4	Y4	Z4	X5	Y5	Z5	X6	Y6	Z6	X7	Y7	Z7	X8	Y8	Z8	X9	Y9	Z9	X10	Y10	Z10	X11	Y11	Z11	X12	Y12	Z12	X13	Y13	Z13	X14	Y14	Z14	X15	Y15	Z15	X16	Y16	Z16	X17	Y17	Z17	X18	Y18	Z18	X19	Y19	Z19	X20	Y20	Z20	X21	Y21	Z21	X22	Y22	Z22	X23	Y23	Z23	X24	Y24	Z24	X25	Y25	Z25	X26	Y26	Z26	X27	Y27	Z27	X28	Y28	Z28	X29	Y29	Z29	X30	Y30	Z30	X31	Y31	Z31	X32	Y32	Z32	X33	Y33	Z33	X34	Y34	Z34	X35	Y35	Z35	X36	Y36	Z36	X37	Y37	Z37	X38	Y38	Z38	X39	Y39	Z39	X40	Y40	Z40	X41	Y41	Z41	X42	Y42	Z42	X43	Y43	Z43	

36	0.350	1332.95923	-1246.26660	1643.27466	1448.31458	-1234.59290	1647.10657	1337.60608	-1367.27588	1610.88733	1458.77478	-1358.56311	1613.97986	1352.10681	-1424.45898	1420.24023	1342.59570	-1479.70300	1128.99988	1385.48376	-1291.45691	1341.38550	1385.32849	-1259.06470	1185.91431	1405.00732	-1509.01746	1228.30579	1216.24573	-1308.25037	1377.30139	1121.61060	-1306.18005	1196.73096	1112.64722	-1293.89124	1043.17163	1118.95154	-1199.54285	971.18915	1181.13159	-1082.24915	925.47778	1142.05237	-1111.96191	889.14240	1156.41541	-1033.06909	867.22766	1518.10571	-1388.07813	1376.33923	1583.57288	-1508.14966	1193.32751	1581.27197	-1533.19934	1070.79114	1620.13110	-1539.54236	952.50800	1638.68579	-1477.21814	825.86072	1651.52881	-1533.27588	832.99432	1664.67981	-1509.88831	750.68597	1272.18262	-1302.08838	907.41724	1486.82312	-1336.31873	924.32410	1295.97681	-1493.03369	932.90295	1440.03955	-1514.38782	939.06555	1235.71082	-1383.53711	575.21307	1257.71899	-1423.70398	445.09158	1258.07471	-1503.83215	273.03674	1320.90100	-1570.41199	67.97336	1369.42188	-1624.86914	45.48872	1331.93115	-1428.63696	24.04712	1579.58459	-1329.18945	607.75464	1568.85645	-1260.07666	465.23904	1597.27197	-1267.61108	293.89835	1579.03101	-1221.40479	83.19783	1529.04907	-1248.88220	27.74917	1593.38721	-1076.67822	81.26747	1425.10266	-1242.67920	1681.81055	-3102.14502	1972.99646	1023.68610	-3140.83838	2012.52661	1021.93616			 
37	0.360	1336.17102	-1239.40479	1643.25452	1451.48120	-1227.27258	1647.01855	1341.20581	-1360.14478	1610.12463	1462.39429	-1351.02563	1613.15503	1356.09912	-1416.45190	1419.58606	1347.05188	-1470.99536	1128.14563	1388.61023	-1282.89026	1340.98401	1388.00488	-1250.16406	1185.50330	1409.44885	-1500.06128	1227.30261	1219.39001	-1300.90625	1376.94702	1124.82190	-1298.98804	1196.44385	1115.97803	-1285.45801	1043.73914	1121.83838	-1189.74451	972.98175	1183.32153	-1072.04187	929.20251	1144.71777	-1101.31885	892.03723	1158.68152	-1021.77484	871.82635	1521.73889	-1378.59851	1375.44299	1587.19727	-1499.45654	1192.95129	1585.17432	-1524.96411	1070.43933	1624.40344	-1530.61560	952.03760	1643.58630	-1467.34497	826.09302	1656.31750	-1523.41541	832.88867	1669.75281	-1499.23169	750.78949	1274.87085	-1293.84668	906.92749	1489.97363	-1326.11792	923.38855	1300.38574	-1484.57080	932.13696	1444.49329	-1504.75232	937.93036	1237.80029	-1377.80847	575.51788	1259.27625	-1419.05701	445.58295	1259.20532	-1501.30396	274.34470	1321.32104	-1570.00293	69.30870	1370.04578	-1624.34021	47.66711	1331.92419	-1428.65869	24.06873	1583.19824	-1320.23096	606.46289	1570.63757	-1250.93933	464.14340	1598.85095	-1253.62439	292.76129	1581.27783	-1200.88525	83.30700	1531.83716	-1227.65869	27.57782	1593.27002	-1055.37524	84.37686	1428.36975	-1235.57263	1681.73254	-3101.89795	1973.18750	1023.58887	-3140.56250	2012.52612	1022.04736			 
38	0.370	1339.47412	-1232.50891	1643.26306	1454.67334	-1219.93164	1646.97253	1344.96814	-1353.17981	1609.57239	1466.02380	-1343.43616	1612.32776	1360.12463	-1408.40808	1418.81213	1351.65173	-1462.16858	1127.26819	1391.72083	-1274.35278	1340.59192	1390.77832	-1241.24463	1185.09937	1413.98438	-1491.09912	1226.29651	1222.60742	-1293.61804	1376.67456	1128.11633	-1291.84619	1196.14954	1119.07825	-1277.58691	1043.41260	1124.73181	-1180.71606	974.07318	1185.55774	-1061.95007	932.52533	1147.26111	-1090.86096	894.72211	1160.79663	-1010.85132	876.07477	1525.72205	-1369.44312	1374.70020	1591.06970	-1490.58728	1192.44336	1589.21240	-1516.51843	1069.94031	1628.83325	-1521.53320	951.64398	1648.37439	-1457.25842	826.19287	1661.00330	-1513.41687	832.42261	1674.56116	-1488.23059	750.39447	1278.10364	-1284.75208	907.04309	1493.24133	-1315.81934	922.35400	1304.87146	-1475.99304	931.34607	1449.15283	-1495.11572	936.88043	1239.62891	-1371.72754	575.90649	1260.73755	-1414.20166	446.06000	1260.21021	-1498.58484	275.78220	1321.66687	-1568.97693	71.03350	1370.66589	-1623.10327	49.35049	1331.86426	-1428.57495	24.02569	1585.95483	-1310.62073	604.59760	1572.44202	-1241.85571	462.95187	1600.39063	-1240.57495	291.69623	1582.97986	-1182.72559	83.48551	1533.93103	-1208.83020	27.37238	1593.07056	-1036.55847	87.38657	1431.65906	-1228.62231	1681.57446	-3101.91870	1973.15137	1023.43188	-3140.69800	2012.58167	1022.03180			 
39	0.380	1342.81018	-1225.52832	1643.29773	1457.99426	-1212.66882	1647.01111	1348.59241	-1345.98828	1608.84839	1469.68298	-1335.90308	1611.56714	1364.24695	-1400.22424	1417.97119	1356.34521	-1453.31689	1126.41016	1394.98499	-1265.74707	1340.26294	1393.64673	-1232.29126	1184.77307	1418.58118	-1482.11792	1225.32788	1225.94800	-1286.28650	1376.37305	1131.55432	-1284.67505	1195.85864	1122.11755	-1269.56934	1042.84521	1127.42224	-1171.95618	974.96539	1187.83789	-1052.10583	935.55573	1149.92615	-1080.64246	897.15100	1162.85034	-1000.25586	879.87085	1529.56042	-1360.10986	1373.86353	1595.08496	-1481.51758	1191.84900	1593.39331	-1507.82751	1069.37915	1633.23938	-1512.16296	950.82257	1653.07861	-1447.00793	826.07910	1665.65369	-1503.24097	832.06384	1679.84265	-1477.33643	750.43616	1280.63220	-1276.61609	906.15350	1496.46912	-1305.37634	921.34088	1309.50232	-1467.30127	930.70544	1453.93384	-1485.29907	935.73657	1241.82947	-1365.53979	576.20526	1262.20825	-1409.04028	446.62033	1260.81152	-1495.79810	277.34769	1321.81909	-1568.26721	72.87518	1370.59558	-1622.91077	52.33526	1331.79456	-1428.57068	23.98758	1588.33582	-1300.92249	603.32257	1574.10107	-1232.67139	461.62964	1601.62268	-1228.55762	290.47696	1583.98303	-1166.51514	83.23553	1535.03503	-1192.13318	27.08881	1592.38098	-1020.10406	88.68726	1435.00476	-1221.90540	1681.71960	-3101.96851	1973.11157	1023.49060	-3140.70044	2012.59436	1022.19733			 
